<svg xmlns="http://www.w3.org/2000/svg" viewBox="0 0 91 96" width="182" height="192" xmlns:c2pa="http://c2pa.org/manifest"><metadata><c2pa:manifest>AAAWgmp1bWIAAAAeanVtZGMycGEAEQAQgAAAqgA4m3EDYzJwYQAAABZcanVtYgAAAEdqdW1kYzJtYQARABCAAACqADibcQN1cm46YzJwYTpkNGFkNTU1ZS02NjFkLTQ4MmMtYWQxNC1jMjA0YWQ0NDgwM2YAAAADl2p1bWIAAAApanVtZGMyYXMAEQAQgAAAqgA4m3EDYzJwYS5hc3NlcnRpb25zAAAAALxqdW1iAAAARGp1bWRjYm9yABEAEIAAAKoAOJtxE2MycGEuaW5ncmVkaWVudC52MwAAAAAYYzJzaMtlhWygQ6if6/760xIQPQcAAABwY2JvcqNpZGM6Zm9ybWF0bWltYWdlL3N2Zyt4bWxqaW5zdGFuY2VJRHgseG1wOmlpZDoxOTM2ZDg2NC01ZmQ2LTQzODEtYTQ2Ny1iMzNlNTAwZTZhZDdscmVsYXRpb25zaGlwaHBhcmVudE9mAAAB4mp1bWIAAABBanVtZGNib3IAEQAQgAAAqgA4m3ETYzJwYS5hY3Rpb25zLnYyAAAAABhjMnNogyFkEKdbMsRv5eIlEdTzIQAAAZljYm9yomdhY3Rpb25zgqJmYWN0aW9ua2MycGEub3BlbmVkanBhcmFtZXRlcnOha2luZ3JlZGllbnRzgaJjdXJseC1zZWxmI2p1bWJmPWMycGEuYXNzZXJ0aW9ucy9jMnBhLmluZ3JlZGllbnQudjNkaGFzaFggkZb0of0uEU+s1YCRoFpq8StRauveTsm3csdB2RnQhpekZmFjdGlvbngdY29tLmFudGhyb3BpYy5jbGF1ZGUucHJvdmlkZWRqcGFyYW1ldGVyc6F4H2NvbS5hbnRocm9waWMub3JpZ2luLWNvbmZpZGVuY2VndW5rbm93bmtkZXNjcmlwdGlvbnhmQ2xhdWRlIHByb3ZpZGVkIHRoaXMgZmlsZSBhdCB0aGUgcmVxdWVzdCBvZiBhIHVzZXIgYW5kIG1heSBoYXZlIGNyZWF0ZWQgb3IgbW9kaWZpZWQgdGhlIGZpbGUgY29udGVudHMubXNvZnR3YXJlQWdlbnShZG5hbWVmQ2xhdWRlcmFsbEFjdGlvbnNJbmNsdWRlZPUAAADIanVtYgAAAEBqdW1kY2JvcgARABCAAACqADibcRNjMnBhLmhhc2guZGF0YQAAAAAYYzJzaGPsYrhfNCn/bbAAq5ly478AAACAY2JvcqVjYWxnZnNoYTI1NmNwYWRNAAAAAAAAAAAAAAAAAGRoYXNoWCA6iPP9zSvXSL+2Qj5G/1rRTkwsaDA1sIro9PqyjnA8pWRuYW1lbmp1bWJmIG1hbmlmZXN0amV4Y2x1c2lvbnOBomVzdGFydBiUZmxlbmd0aBkeBAAAAj5qdW1iAAAAJ2p1bWRjMmNsABEAEIAAAKoAOJtxA2MycGEuY2xhaW0udjIAAAACD2Nib3KlY2FsZ2ZzaGEyNTZpc2lnbmF0dXJleE1zZWxmI2p1bWJmPS9jMnBhL3VybjpjMnBhOmQ0YWQ1NTVlLTY2MWQtNDgyYy1hZDE0LWMyMDRhZDQ0ODAzZi9jMnBhLnNpZ25hdHVyZWppbnN0YW5jZUlEeCx4bXA6aWlkOjMyZThhM2Y2LWU4YjktNDNlNi1iNjZlLWFlOWEwN2Q2MzMzZnJjcmVhdGVkX2Fzc2VydGlvbnODomN1cmx4LXNlbGYjanVtYmY9YzJwYS5hc3NlcnRpb25zL2MycGEuaW5ncmVkaWVudC52M2RoYXNoWCCRlvSh/S4RT6zVgJGgWmrxK1Fq695Oybdyx0HZGdCGl6JjdXJseCpzZWxmI2p1bWJmPWMycGEuYXNzZXJ0aW9ucy9jMnBhLmFjdGlvbnMudjJkaGFzaFggMs+bgc7EUQOBNvyBp/EV3lpHwLIiRleNVGnfUFCiqziiY3VybHgpc2VsZiNqdW1iZj1jMnBhLmFzc2VydGlvbnMvYzJwYS5oYXNoLmRhdGFkaGFzaFgg/KmgSXHXvBs5LAqdc9D9kDDscKr6vP3/X/nbMkXoSGN0Y2xhaW1fZ2VuZXJhdG9yX2luZm+jZG5hbWVvQW50aHJvcGljIEZpbGVzZ3ZlcnNpb25lMS4wLjBrc3BlY1ZlcnNpb25lMi40LjAAABA4anVtYgAAAChqdW1kYzJjcwARABCAAACqADibcQNjMnBhLnNpZ25hdHVyZQAAABAIY2JvctKEWQISogEmGCFZAgowggIGMIIBjaADAgECAhRA5aAK7sI50L64g/oGQgU9Z1UTADAKBggqhkjOPQQDAzBJMRcwFQYDVQQKEw5BbnRocm9waWMsIFBCQzEuMCwGA1UEAxMlQW50aHJvcGljIENvbnRlbnQgQ3JlZGVudGlhbHMgUm9vdCBDQTAeFw0yNjA4MDcxODQzNTZaFw0yODA4MDYxOTQzNTZaMEQxFzAVBgNVBAoTDkFudGhyb3BpYywgUEJDMSkwJwYDVQQDEyBBbnRocm9waWMgQ2xhdWRlIENvbnRlbnQgU2lnbmluZzBZMBMGByqGSM49AgEGCCqGSM49AwEHA0IABJh6CmvLUBgFFNU0vUKlOVtE6djd17L5SuwX0LemFisBM3dkd/3cyjxFA3Qo5S46fX0/ihY0VZ7mfb9KF703t5OjWDBWMA4GA1UdDwEB/wQEAwIHgDAVBgNVHSUEDjAMBgorBgEEAYPoXgIBMAwGA1UdEwEB/wQCMAAwHwYDVR0jBBgwFoAUzlHiBIFOZFsj+OPEz5o+nMHXXMIwCgYIKoZIzj0EAwMDZwAwZAIwMXMdFJ4BetLLVY7ORuE9noqbbAZOZn/aArXyTwFAZfKrPzxF2vPoJNf1+UCdg1XGAjBwX1zd9WGqYkqmL5SFqw1QySjr1zJfpJM9+1rdDwSPLMOPOjKuiXjoU/pUUeG9RwmhY3BhZFkNngAAAAAAAAAAAAAAAAAAAAAAAAAAAAAAAAAAAAAAAAAAAAAAAAAAAAAAAAAAAAAAAAAAAAAAAAAAAAAAAAAAAAAAAAAAAAAAAAAAAAAAAAAAAAAAAAAAAAAAAAAAAAAAAAAAAAAAAAAAAAAAAAAAAAAAAAAAAAAAAAAAAAAAAAAAAAAAAAAAAAAAAAAAAAAAAAAAAAAAAAAAAAAAAAAAAAAAAAAAAAAAAAAAAAAAAAAAAAAAAAAAAAAAAAAAAAAAAAAAAAAAAAAAAAAAAAAAAAAAAAAAAAAAAAAAAAAAAAAAAAAAAAAAAAAAAAAAAAAAAAAAAAAAAAAAAAAAAAAAAAAAAAAAAAAAAAAAAAAAAAAAAAAAAAAAAAAAAAAAAAAAAAAAAAAAAAAAAAAAAAAAAAAAAAAAAAAAAAAAAAAAAAAAAAAAAAAAAAAAAAAAAAAAAAAAAAAAAAAAAAAAAAAAAAAAAAAAAAAAAAAAAAAAAAAAAAAAAAAAAAAAAAAAAAAAAAAAAAAAAAAAAAAAAAAAAAAAAAAAAAAAAAAAAAAAAAAAAAAAAAAAAAAAAAAAAAAAAAAAAAAAAAAAAAAAAAAAAAAAAAAAAAAAAAAAAAAAAAAAAAAAAAAAAAAAAAAAAAAAAAAAAAAAAAAAAAAAAAAAAAAAAAAAAAAAAAAAAAAAAAAAAAAAAAAAAAAAAAAAAAAAAAAAAAAAAAAAAAAAAAAAAAAAAAAAAAAAAAAAAAAAAAAAAAAAAAAAAAAAAAAAAAAAAAAAAAAAAAAAAAAAAAAAAAAAAAAAAAAAAAAAAAAAAAAAAAAAAAAAAAAAAAAAAAAAAAAAAAAAAAAAAAAAAAAAAAAAAAAAAAAAAAAAAAAAAAAAAAAAAAAAAAAAAAAAAAAAAAAAAAAAAAAAAAAAAAAAAAAAAAAAAAAAAAAAAAAAAAAAAAAAAAAAAAAAAAAAAAAAAAAAAAAAAAAAAAAAAAAAAAAAAAAAAAAAAAAAAAAAAAAAAAAAAAAAAAAAAAAAAAAAAAAAAAAAAAAAAAAAAAAAAAAAAAAAAAAAAAAAAAAAAAAAAAAAAAAAAAAAAAAAAAAAAAAAAAAAAAAAAAAAAAAAAAAAAAAAAAAAAAAAAAAAAAAAAAAAAAAAAAAAAAAAAAAAAAAAAAAAAAAAAAAAAAAAAAAAAAAAAAAAAAAAAAAAAAAAAAAAAAAAAAAAAAAAAAAAAAAAAAAAAAAAAAAAAAAAAAAAAAAAAAAAAAAAAAAAAAAAAAAAAAAAAAAAAAAAAAAAAAAAAAAAAAAAAAAAAAAAAAAAAAAAAAAAAAAAAAAAAAAAAAAAAAAAAAAAAAAAAAAAAAAAAAAAAAAAAAAAAAAAAAAAAAAAAAAAAAAAAAAAAAAAAAAAAAAAAAAAAAAAAAAAAAAAAAAAAAAAAAAAAAAAAAAAAAAAAAAAAAAAAAAAAAAAAAAAAAAAAAAAAAAAAAAAAAAAAAAAAAAAAAAAAAAAAAAAAAAAAAAAAAAAAAAAAAAAAAAAAAAAAAAAAAAAAAAAAAAAAAAAAAAAAAAAAAAAAAAAAAAAAAAAAAAAAAAAAAAAAAAAAAAAAAAAAAAAAAAAAAAAAAAAAAAAAAAAAAAAAAAAAAAAAAAAAAAAAAAAAAAAAAAAAAAAAAAAAAAAAAAAAAAAAAAAAAAAAAAAAAAAAAAAAAAAAAAAAAAAAAAAAAAAAAAAAAAAAAAAAAAAAAAAAAAAAAAAAAAAAAAAAAAAAAAAAAAAAAAAAAAAAAAAAAAAAAAAAAAAAAAAAAAAAAAAAAAAAAAAAAAAAAAAAAAAAAAAAAAAAAAAAAAAAAAAAAAAAAAAAAAAAAAAAAAAAAAAAAAAAAAAAAAAAAAAAAAAAAAAAAAAAAAAAAAAAAAAAAAAAAAAAAAAAAAAAAAAAAAAAAAAAAAAAAAAAAAAAAAAAAAAAAAAAAAAAAAAAAAAAAAAAAAAAAAAAAAAAAAAAAAAAAAAAAAAAAAAAAAAAAAAAAAAAAAAAAAAAAAAAAAAAAAAAAAAAAAAAAAAAAAAAAAAAAAAAAAAAAAAAAAAAAAAAAAAAAAAAAAAAAAAAAAAAAAAAAAAAAAAAAAAAAAAAAAAAAAAAAAAAAAAAAAAAAAAAAAAAAAAAAAAAAAAAAAAAAAAAAAAAAAAAAAAAAAAAAAAAAAAAAAAAAAAAAAAAAAAAAAAAAAAAAAAAAAAAAAAAAAAAAAAAAAAAAAAAAAAAAAAAAAAAAAAAAAAAAAAAAAAAAAAAAAAAAAAAAAAAAAAAAAAAAAAAAAAAAAAAAAAAAAAAAAAAAAAAAAAAAAAAAAAAAAAAAAAAAAAAAAAAAAAAAAAAAAAAAAAAAAAAAAAAAAAAAAAAAAAAAAAAAAAAAAAAAAAAAAAAAAAAAAAAAAAAAAAAAAAAAAAAAAAAAAAAAAAAAAAAAAAAAAAAAAAAAAAAAAAAAAAAAAAAAAAAAAAAAAAAAAAAAAAAAAAAAAAAAAAAAAAAAAAAAAAAAAAAAAAAAAAAAAAAAAAAAAAAAAAAAAAAAAAAAAAAAAAAAAAAAAAAAAAAAAAAAAAAAAAAAAAAAAAAAAAAAAAAAAAAAAAAAAAAAAAAAAAAAAAAAAAAAAAAAAAAAAAAAAAAAAAAAAAAAAAAAAAAAAAAAAAAAAAAAAAAAAAAAAAAAAAAAAAAAAAAAAAAAAAAAAAAAAAAAAAAAAAAAAAAAAAAAAAAAAAAAAAAAAAAAAAAAAAAAAAAAAAAAAAAAAAAAAAAAAAAAAAAAAAAAAAAAAAAAAAAAAAAAAAAAAAAAAAAAAAAAAAAAAAAAAAAAAAAAAAAAAAAAAAAAAAAAAAAAAAAAAAAAAAAAAAAAAAAAAAAAAAAAAAAAAAAAAAAAAAAAAAAAAAAAAAAAAAAAAAAAAAAAAAAAAAAAAAAAAAAAAAAAAAAAAAAAAAAAAAAAAAAAAAAAAAAAAAAAAAAAAAAAAAAAAAAAAAAAAAAAAAAAAAAAAAAAAAAAAAAAAAAAAAAAAAAAAAAAAAAAAAAAAAAAAAAAAAAAAAAAAAAAAAAAAAAAAAAAAAAAAAAAAAAAAAAAAAAAAAAAAAAAAAAAAAAAAAAAAAAAAAAAAAAAAAAAAAAAAAAAAAAAAAAAAAAAAAAAAAAAAAAAAAAAAAAAAAAAAAAAAAAAAAAAAAAAAAAAAAAAAAAAAAAAAAAAAAAAAAAAAAAAAAAAAAAAAAAAAAAAAAAAAAAAAAAAAAAAAAAAAAAAAAAAAAAAAAAAAAAAAAAAAAAAAAAAAAAAAAAAAAAAAAAAAAAAAAAAAAAAAAAAAAAAAAAAAAAAAAAAAAAAAAAAAAAAAAAAAAAAAAAAAAAAAAAAAAAAAAAAAAAAAAAAAAAAAAAAAAAAAAAAAAAAAAAAAAAAAAAAAAAAAAAAAAAAAAAAAAAAAAAAAAAAAAAAAAAAAAAAAAAAAAAAAAAAAAAAAAAAAAAAAAAAAAAAAAAAAAAAAAAAAAAAAAAAAAAAAAAAAAAAAAAAAAAAAAAAAAAAAAAAAAAAAAAAAAAAAAAAAAAAAAAAAAAAAAAAAAAAAAAAAAAAAAAAAAAAAAAAAAAAAAAAAAAAAAAAAAAAAAAAAAAAAAAAAAAAAAAAAAAAAAAAAAAAAAAAAAAAAAAAAAAAAAAAAAAAAAAAAAAAAAAAAAAAAAAAAAAAAAAAAAAAAAAAAAAAAAAAAAAAAAAAAAAAAAAAAAAAAAAAAAAAAAAAAAAAAAAAAAAAAAAAAAAAAAAAAAAAAAAAAAAAAAAAAAAAAAAAAAAAAAAAAAAAAAAAAAAAAAAAAAAAAAAAAAAAAAAAAAAAAAAAAAAAAAAAAAAAAAAAAAAAAAAAAAAAAAAAAAAAAAAAAAAAAAAAAAAAAAAAAAAAAAAAAAAAAAAAAAAAAAAAAAAAAAAAAAAAAAAAAAAAAAAAAAAAAAAAAAAAAAAAAAAAAAAAAAAAAAAAAAAAAAAAAAAAAAAAAAAAAAAAAAAAAAAAAAAAAAAAAAAAAAAAAAAAAAAAAAAAAAAAAAAAAAAAAAAAAAAAAAAAAAAAAAAAAAAAAAAAAAAAAAAAAAAAAAAAAAAAAAAAAAAAAAAAAAAAAAAAAAAAAAAAAAAAAAAAAAAAAAAAAAAAAAAAAAAAAAAAAAAAAAAAAAAAAAAAAAAAAAAAAAAAAAAAAAAAAAAAAAAAAAAAAAAAAAAAAAAAAAAAAAAAAAAAAAAAAAAAAAAAAAAAAAAAAAAAAAAAAAAAAAAAAAAAAAAAAAAAAAAAAAAAAAAAAAAAAAAAAAAAAAAAAAAAAAAAAAAAAAAAAAAAAAAAAAAAAAAAAAAAAAAAAAAAAAAAAAAAAAAAAAAAAAAAAAAAAAAAAAAAAAAAAAAAAAAAAAAAAAAAAAAAAAAAAAAAAAAAAAAAAAAAAAAAAAAAAAAAAAAAAAAAAAAAAAAAAAAAAAAAAAAAAAAAAAAAAAAAAAAAAAAAAAAAAAAAAAAAAAAAAAAAAAAAAAAAAAAAAAAAAAAAAAAAAAAAAAAAAAAAAAAAAAAAAAAAAAAAAAAAAAAAAAAAAAAAAAAAAAAAAAAAAAAAAAAAAAAAAAAAAAAAAAAAAAAAAAAAAAAAAAAAAAAAAAAAAAAAAAAAAAAAAAAAAAAPZYQGgJvB4ARSB187rpRjxGlZbyx0v2dd7pxrpYyWVQsJyF+MsjIMXnWJVE7rY8jvKRW2/x+tU3Gr5ioEEsorrp/jA=</c2pa:manifest></metadata><g transform="translate(8 8)"><rect x="0" y="40" width="74.528" height="33.6" fill="#FFC531"></rect><path fill="#1A1A1A" d="M33.20 41.60L33.20 41.60L32.90 41.50Q33.10 41.60 33.20 41.60ZM21.10 64.90L20.60 67.20L20.60 68.10Q22.90 71.20 23 71.20L23 71.20Q23.50 71.20 25.30 70.60L25.30 70.60Q25.40 70.60 26.35 69.65Q27.30 68.70 27.70 68.40L27.70 68.40Q28.90 67.70 29.30 67.50L29.30 67.50Q29.30 66.70 30 65.85Q30.70 65 31.25 64.15Q31.80 63.30 32 62.90L32 62.90Q32.60 62.10 32.40 62.10L32.40 62.10Q32.60 61.70 33 60.40L33 60.40L34 58.10L35.10 53.10Q35.30 52.40 34.60 48.70L34.60 48.70L34.60 47.80Q34.40 47.50 34.40 47.20L34.40 47.20L34.40 47.10L34.30 46.10Q34.30 45.60 34 44.40L34 44.40Q33.80 43.50 32.80 41.50L32.80 41.50L31.70 41.50Q29.90 42.40 29 43.40L29 43.40Q27.90 44.80 26.20 48.40Q24.50 52 23.90 54.90L23.90 54.90L23.30 57.30Q22 60 21.60 63.50L21.60 63.50L21.10 64.90ZM43.40 38.50L43.40 38.50Q45.40 42.80 45.40 45.70L45.40 45.70Q45.40 51.50 44.40 54.50L44.40 54.50Q44.40 55.60 44.20 56.20L44.20 56.20Q43.30 62.80 41.90 66L41.90 66Q41.40 66.70 40.80 68.20L40.80 68.20Q40.20 69.90 37.80 72.10L37.80 72.10Q37.80 72.40 36.30 73.95Q34.80 75.50 31.60 76.50L31.60 76.50Q27.90 77.70 26.80 77.70L26.80 77.70Q21.10 78.60 18.50 76L18.50 76L18.40 76.10Q16.40 79.60 13.60 78.20L13.60 78.20Q11.90 77.30 11.65 77Q11.40 76.70 11.30 75.70L11.30 75.70Q10.60 73.90 10.80 71.50L10.80 71.50L11.30 68.20Q11 66.50 11.20 65.20L11.20 65.20L11.20 64.50Q11.40 62.50 11.50 56.85Q11.60 51.20 11.85 49.95Q12.10 48.70 12.10 47.60L12.10 47.60Q13.30 33.90 13.45 32.95Q13.60 32 13.60 26.50L13.60 26.50L13.60 21Q13.60 19.40 13.55 18.60Q13.50 17.80 13.90 17.50L13.90 17.50Q13.10 15.20 13.60 12.30L13.60 12.30L13.60 11.10Q13.40 9.20 14.40 7.50L14.40 7.50Q15.10 6.60 17.20 5.80Q19.30 5 20.70 4.90L20.70 4.90L21.20 4.90Q22.50 4.90 23.50 5.60L23.50 5.60Q24.70 6.10 24.70 8L24.70 8Q24.90 8.60 24.70 9.30L24.70 9.30Q24.80 10 23.75 23.45Q22.70 36.90 22.70 38.15Q22.70 39.40 22.65 39.75Q22.60 40.10 22.60 40.20L22.60 40.20Q23.10 40 23.20 39.50Q23.30 39 23.60 38.80L23.60 38.80Q25.30 37.60 25.30 37.10L25.30 37.10Q25.30 37 25.80 36.60Q26.30 36.20 26.40 36.20L26.40 36.20Q26.60 35.90 27.10 35.80L27.10 35.80L28.90 34.90Q29 34.30 31.80 34.35Q34.60 34.40 35.20 34.80L35.20 34.80Q36.20 35.30 36.55 35.45Q36.90 35.60 37.25 35.65Q37.60 35.70 40 36.50L40 36.50Q41.10 36.50 41.10 36.80L41.10 36.80Q41.50 37 41.70 37L41.70 37Q43.40 38 43.40 38.50Z"></path><g transform="rotate(6 56.864000000000004 58.4)"><path fill="#2B59C3" d="M59.89 59.26L59.89 59.26L59.73 59.21Q59.83 59.26 59.89 59.26ZM53.35 71.85L53.08 73.09L53.08 73.57Q54.33 75.25 54.38 75.25L54.38 75.25Q54.65 75.25 55.62 74.92L55.62 74.92Q55.68 74.92 56.19 74.41Q56.70 73.90 56.92 73.74L56.92 73.74Q57.57 73.36 57.78 73.25L57.78 73.25Q57.78 72.82 58.16 72.36Q58.54 71.90 58.84 71.44Q59.13 70.98 59.24 70.77L59.24 70.77Q59.56 70.33 59.46 70.33L59.46 70.33Q59.56 70.12 59.78 69.42L59.78 69.42L60.32 68.17L60.91 65.47Q61.02 65.10 60.64 63.10L60.64 63.10L60.64 62.61Q60.54 62.45 60.54 62.29L60.54 62.29L60.54 62.23L60.48 61.69Q60.48 61.42 60.32 60.78L60.32 60.78Q60.21 60.29 59.67 59.21L59.67 59.21L59.08 59.21Q58.11 59.70 57.62 60.24L57.62 60.24Q57.03 60.99 56.11 62.94Q55.19 64.88 54.87 66.45L54.87 66.45L54.54 67.74Q53.84 69.20 53.62 71.09L53.62 71.09L53.35 71.85ZM65.40 57.59L65.40 57.59Q66.48 59.91 66.48 61.48L66.48 61.48Q66.48 64.61 65.94 66.23L65.94 66.23Q65.94 66.82 65.83 67.15L65.83 67.15Q65.34 70.71 64.59 72.44L64.59 72.44Q64.32 72.82 63.99 73.63L63.99 73.63Q63.67 74.55 62.37 75.73L62.37 75.73Q62.37 75.90 61.56 76.73Q60.75 77.57 59.02 78.11L59.02 78.11Q57.03 78.76 56.43 78.76L56.43 78.76Q53.35 79.24 51.95 77.84L51.95 77.84L51.90 77.89Q50.82 79.78 49.30 79.03L49.30 79.03Q48.39 78.54 48.25 78.38Q48.12 78.22 48.06 77.68L48.06 77.68Q47.68 76.71 47.79 75.41L47.79 75.41L48.06 73.63Q47.90 72.71 48.01 72.01L48.01 72.01L48.01 71.63Q48.12 70.55 48.17 67.50Q48.22 64.45 48.36 63.77Q48.49 63.10 48.49 62.50L48.49 62.50Q49.14 55.11 49.22 54.59Q49.30 54.08 49.30 51.11L49.30 51.11L49.30 48.14Q49.30 47.28 49.28 46.84Q49.25 46.41 49.47 46.25L49.47 46.25Q49.03 45.01 49.30 43.44L49.30 43.44L49.30 42.79Q49.20 41.77 49.74 40.85L49.74 40.85Q50.11 40.36 51.25 39.93Q52.38 39.50 53.14 39.45L53.14 39.45L53.41 39.45Q54.11 39.45 54.65 39.82L54.65 39.82Q55.30 40.09 55.30 41.12L55.30 41.12Q55.41 41.44 55.30 41.82L55.30 41.82Q55.35 42.20 54.79 49.46Q54.22 56.73 54.22 57.40Q54.22 58.08 54.19 58.27Q54.16 58.45 54.16 58.51L54.16 58.51Q54.43 58.40 54.49 58.13Q54.54 57.86 54.70 57.75L54.70 57.75Q55.62 57.10 55.62 56.83L55.62 56.83Q55.62 56.78 55.89 56.56Q56.16 56.35 56.22 56.35L56.22 56.35Q56.32 56.19 56.59 56.13L56.59 56.13L57.57 55.65Q57.62 55.32 59.13 55.35Q60.64 55.38 60.97 55.59L60.97 55.59Q61.51 55.86 61.70 55.94Q61.89 56.02 62.08 56.05Q62.26 56.08 63.56 56.51L63.56 56.51Q64.15 56.51 64.15 56.67L64.15 56.67Q64.37 56.78 64.48 56.78L64.48 56.78Q65.40 57.32 65.40 57.59Z"></path></g></g></svg>